<svg xmlns="http://www.w3.org/2000/svg" version="1.1" xmlns:xlink="http://www.w3.org/1999/xlink" xmlns:svgjs="http://svgjs.dev/svgjs" width="1000" height="1000"><g clip-path="url(#SvgjsClipPath1415)"><rect width="1000" height="1000" fill="#000000"></rect><g transform="matrix(25,0,0,25,0,0)"><svg xmlns="http://www.w3.org/2000/svg" version="1.1" xmlns:xlink="http://www.w3.org/1999/xlink" xmlns:svgjs="http://svgjs.dev/svgjs" width="40" height="40"><svg width="40" height="40" viewBox="0 0 40 40" fill="none" xmlns="http://www.w3.org/2000/svg">
<path d="M39.9985 20C39.9985 14.3532 37.6575 9.25485 33.896 5.61792C37.6104 18.4945 29.6894 30.9822 20.8219 27.4592C11.0962 23.596 4.65789 39.9986 28.7642 37.9811C35.4167 34.7331 40.0001 27.9013 40.0001 20H39.9985Z" fill="url(#paint0_linear_541_14625)"></path>
<path style="mix-blend-mode:overlay" opacity="0.27" d="M20.8219 27.4593C11.0962 23.596 4.65788 39.9986 28.7642 37.9812C33.4904 35.6735 37.5846 30.209 39.321 25.1851C35.2997 33.773 26.9078 32.0746 20.8219 27.4593Z" fill="url(#paint1_linear_541_14625)"></path>
<path d="M0 19.9711C0 25.618 2.34105 30.7163 6.10254 34.3533C2.38967 21.4767 10.3091 8.98896 19.1781 12.5119C28.9039 16.3752 35.3407 -0.0289237 11.2358 1.99007C4.58336 5.23961 0 12.0699 0 19.9711Z" fill="url(#paint2_linear_541_14625)"></path>
<path style="mix-blend-mode:overlay" opacity="0.27" d="M11.236 1.99007C7.75709 3.68852 4.84634 6.36836 2.85925 9.66803C6.29108 7.0125 10.639 10.022 12.2037 12.9677C14.3002 11.7949 16.702 11.529 19.1783 12.5119C28.9041 16.3752 35.3408 -0.0289237 11.236 1.99007Z" fill="url(#paint3_linear_541_14625)"></path>
<path d="M16.3357 23.7675C7.6338 11.9224 -0.461899 13.0603 0.110831 22.1086C1.16362 32.1625 9.66646 40 19.9999 40C29.2517 40 37.0375 33.7166 39.3208 25.1849C35.7599 35.5214 24.5787 34.9882 16.3357 23.769V23.7675Z" fill="url(#paint4_linear_541_14625)"></path>
<path d="M17.8792 30.4749C12.0046 24.0594 7.58376 21.5087 4.29777 22.367C1.74251 23.0339 0.791508 26.7043 3.64453 31.5095C7.26473 36.6443 13.2412 39.9987 20 39.9987C27.204 39.9987 33.5177 36.1901 37.0376 30.4764C31.7022 37.5254 23.7326 36.8676 17.8792 30.4734V30.4749Z" fill="url(#paint5_linear_541_14625)"></path>
<path d="M30.7482 36.8676C18.098 41.3629 13.5314 29.1107 8.28415 30.7863C5.49797 31.6766 7.2268 36.6352 13.0392 38.7529C15.2116 39.5444 17.5511 39.9987 20.0001 39.9987C23.956 39.9987 27.643 38.8502 30.7482 36.8676Z" fill="url(#paint6_linear_541_14625)"></path>
<path d="M35.5161 7.43641C31.8503 2.90164 26.243 0 19.9567 0C12.7071 0 6.35697 3.85721 2.85071 9.63163C6.93882 5.61795 11.3308 6.94419 17.9696 17.975C21.9908 24.6579 28.145 27.5504 33.1158 25.3172C38.1139 23.0703 39.7728 13.5648 35.5176 7.43793L35.5161 7.43641Z" fill="url(#paint7_linear_541_14625)"></path>
<path d="M31.3726 3.55034C28.1444 1.31258 24.2264 0 20 0C14.607 0 9.71216 2.13597 6.11475 5.60731C7.82686 4.14282 13.4585 2.20282 20.7885 12.667C24.1778 17.5056 30.531 19.0506 33.4068 16.67C36.4695 14.136 35.8208 7.38932 31.3726 3.54882V3.55034Z" fill="url(#paint8_linear_541_14625)"></path>
<path d="M16.5757 0.293163C14.1435 0.712458 11.8617 1.57232 9.81384 2.78615C9.8579 2.76943 14.7755 0.922105 19.2677 4.73374C23.1188 8.00151 26.8499 10.2484 29.2517 8.51651C32.7124 6.02049 23.2753 -0.557581 16.5757 0.293163Z" fill="url(#paint9_linear_541_14625)"></path>
<defs>
<linearGradient id="paint0_linear_541_14625" x1="23.7691" y1="32.0138" x2="36.9284" y2="8.73382" gradientUnits="userSpaceOnUse">
<stop stop-color="#6E1AB3"></stop>
<stop offset="0.25" stop-color="#731FB7"></stop>
<stop offset="0.75" stop-color="#7B25C3"></stop>
<stop offset="1" stop-color="#8B2DD8"></stop>
</linearGradient>
<linearGradient id="paint1_linear_541_14625" x1="22.2211" y1="35.4882" x2="27.2633" y2="24.9268" gradientUnits="userSpaceOnUse">
<stop stop-color="#34272B"></stop>
<stop offset="1" stop-color="#34272B" stop-opacity="0"></stop>
</linearGradient>
<linearGradient id="paint2_linear_541_14625" x1="16.1109" y1="8.46332" x2="8.55901" y2="19.605" gradientUnits="userSpaceOnUse">
<stop stop-color="#851DDC"></stop>
<stop offset="0.19" stop-color="#8928D9"></stop>
<stop offset="0.59" stop-color="#8B2DD8"></stop>
<stop offset="1" stop-color="#8B2DD8"></stop>
</linearGradient>
<linearGradient id="paint3_linear_541_14625" x1="13.2504" y1="12.0714" x2="8.65642" y2="17.5845" gradientUnits="userSpaceOnUse">
<stop stop-color="#34272B"></stop>
<stop offset="1" stop-color="#34272B" stop-opacity="0"></stop>
</linearGradient>
<linearGradient id="paint4_linear_541_14625" x1="37.0162" y1="44.0896" x2="8.8779" y2="15.9514" gradientUnits="userSpaceOnUse">
<stop stop-color="#994BA8"></stop>
<stop offset="0.21" stop-color="#8E2CE0"></stop>
<stop offset="0.64" stop-color="#A54BF1"></stop>
<stop offset="1" stop-color="#AE5DF2"></stop>
</linearGradient>
<linearGradient id="paint5_linear_541_14625" x1="27.3783" y1="49.6494" x2="3.97896" y2="22.568" gradientUnits="userSpaceOnUse">
<stop stop-color="#AB3EFF"></stop>
<stop offset="0.36" stop-color="#9B36EF"></stop>
<stop offset="0.698598" stop-color="#A64DF1"></stop>
<stop offset="1" stop-color="#BA6AFC"></stop>
</linearGradient>
<linearGradient id="paint6_linear_541_14625" x1="31.7858" y1="42.1331" x2="7.00781" y2="30.645" gradientUnits="userSpaceOnUse">
<stop stop-color="#A23AF6"></stop>
<stop offset="0.36" stop-color="#A245F0"></stop>
<stop offset="0.79" stop-color="#A850F1"></stop>
<stop offset="1" stop-color="#AB57F2"></stop>
</linearGradient>
<linearGradient id="paint7_linear_541_14625" x1="31.8503" y1="25.9401" x2="16.1784" y2="4.40418" gradientUnits="userSpaceOnUse">
<stop stop-color="#861DDD"></stop>
<stop offset="0.21" stop-color="#8926DC"></stop>
<stop offset="0.64" stop-color="#A64EF1"></stop>
<stop offset="1" stop-color="#AE5DF2"></stop>
</linearGradient>
<linearGradient id="paint8_linear_541_14625" x1="30.7558" y1="20.1277" x2="14.9775" y2="-0.555956" gradientUnits="userSpaceOnUse">
<stop stop-color="#9A35EF"></stop>
<stop offset="0.21" stop-color="#A74EF1"></stop>
<stop offset="0.64" stop-color="#B266F3"></stop>
<stop offset="1" stop-color="#B56BF3"></stop>
</linearGradient>
<linearGradient id="paint9_linear_541_14625" x1="22.2924" y1="4.43902" x2="-1.78168" y2="21.3206" gradientUnits="userSpaceOnUse">
<stop stop-color="#B367F3"></stop>
<stop offset="1" stop-color="#EF85FF"></stop>
</linearGradient>
<clipPath id="SvgjsClipPath1415"><rect width="1000" height="1000" x="0" y="0" rx="500" ry="500"></rect></clipPath></defs>
</svg></svg></g></g></svg>